<svg width="104" height="23" viewBox="0 0 104 23" fill="none" xmlns="http://www.w3.org/2000/svg">
<path d="M0.29 12.03C0.29 9.99 0.75 8.16 1.67 6.54C2.59 4.9 3.84 3.62 5.42 2.7C7.02 1.78 8.79 1.32 10.73 1.32C13.01 1.32 15 1.87 16.7 2.97C18.4 4.07 19.64 5.63 20.42 7.65H17.15C16.57 6.39 15.73 5.42 14.63 4.74C13.55 4.06 12.25 3.72 10.73 3.72C9.27 3.72 7.96 4.06 6.8 4.74C5.64 5.42 4.73 6.39 4.07 7.65C3.41 8.89 3.08 10.35 3.08 12.03C3.08 13.69 3.41 15.15 4.07 16.41C4.73 17.65 5.64 18.61 6.8 19.29C7.96 19.97 9.27 20.31 10.73 20.31C12.25 20.31 13.55 19.98 14.63 19.32C15.73 18.64 16.57 17.67 17.15 16.41H20.42C19.64 18.41 18.4 19.96 16.7 21.06C15 22.14 13.01 22.68 10.73 22.68C8.79 22.68 7.02 22.23 5.42 21.33C3.84 20.41 2.59 19.14 1.67 17.52C0.75 15.9 0.29 14.07 0.29 12.03ZM32.6438 5.76C33.8838 5.76 35.0038 6.03 36.0038 6.57C37.0038 7.09 37.7838 7.88 38.3438 8.94C38.9238 10 39.2138 11.29 39.2138 12.81V22.5H36.5138V13.2C36.5138 11.56 36.1038 10.31 35.2838 9.45C34.4638 8.57 33.3438 8.13 31.9238 8.13C30.4838 8.13 29.3338 8.58 28.4738 9.48C27.6338 10.38 27.2138 11.69 27.2138 13.41V22.5H24.4838V0.3H27.2138V8.4C27.7538 7.56 28.4938 6.91 29.4338 6.45C30.3938 5.99 31.4638 5.76 32.6438 5.76ZM58.6733 13.65C58.6733 14.17 58.6433 14.72 58.5833 15.3H45.4433C45.5433 16.92 46.0933 18.19 47.0933 19.11C48.1133 20.01 49.3433 20.46 50.7833 20.46C51.9633 20.46 52.9433 20.19 53.7233 19.65C54.5233 19.09 55.0833 18.35 55.4033 17.43H58.3433C57.9033 19.01 57.0233 20.3 55.7033 21.3C54.3833 22.28 52.7433 22.77 50.7833 22.77C49.2233 22.77 47.8233 22.42 46.5833 21.72C45.3633 21.02 44.4033 20.03 43.7033 18.75C43.0033 17.45 42.6533 15.95 42.6533 14.25C42.6533 12.55 42.9933 11.06 43.6733 9.78C44.3533 8.5 45.3033 7.52 46.5233 6.84C47.7633 6.14 49.1833 5.79 50.7833 5.79C52.3433 5.79 53.7233 6.13 54.9233 6.81C56.1233 7.49 57.0433 8.43 57.6833 9.63C58.3433 10.81 58.6733 12.15 58.6733 13.65ZM55.8533 13.08C55.8533 12.04 55.6233 11.15 55.1633 10.41C54.7033 9.65 54.0733 9.08 53.2733 8.7C52.4933 8.3 51.6233 8.1 50.6633 8.1C49.2833 8.1 48.1033 8.54 47.1233 9.42C46.1633 10.3 45.6133 11.52 45.4733 13.08H55.8533ZM77.2768 13.65C77.2768 14.17 77.2468 14.72 77.1868 15.3H64.0468C64.1468 16.92 64.6968 18.19 65.6968 19.11C66.7168 20.01 67.9468 20.46 69.3868 20.46C70.5668 20.46 71.5468 20.19 72.3268 19.65C73.1268 19.09 73.6868 18.35 74.0068 17.43H76.9468C76.5068 19.01 75.6268 20.3 74.3068 21.3C72.9868 22.28 71.3468 22.77 69.3868 22.77C67.8268 22.77 66.4268 22.42 65.1868 21.72C63.9668 21.02 63.0068 20.03 62.3068 18.75C61.6068 17.45 61.2568 15.95 61.2568 14.25C61.2568 12.55 61.5968 11.06 62.2768 9.78C62.9568 8.5 63.9068 7.52 65.1268 6.84C66.3668 6.14 67.7868 5.79 69.3868 5.79C70.9468 5.79 72.3268 6.13 73.5268 6.81C74.7268 7.49 75.6468 8.43 76.2868 9.63C76.9468 10.81 77.2768 12.15 77.2768 13.65ZM74.4568 13.08C74.4568 12.04 74.2268 11.15 73.7668 10.41C73.3068 9.65 72.6768 9.08 71.8768 8.7C71.0968 8.3 70.2268 8.1 69.2668 8.1C67.8868 8.1 66.7068 8.54 65.7268 9.42C64.7668 10.3 64.2168 11.52 64.0768 13.08H74.4568ZM83.6103 8.73C84.0903 7.79 84.7703 7.06 85.6503 6.54C86.5503 6.02 87.6403 5.76 88.9203 5.76V8.58H88.2003C85.1403 8.58 83.6103 10.24 83.6103 13.56V22.5H80.8803V6.06H83.6103V8.73ZM97.8917 22.77C96.6317 22.77 95.5017 22.56 94.5017 22.14C93.5017 21.7 92.7117 21.1 92.1317 20.34C91.5517 19.56 91.2317 18.67 91.1717 17.67H93.9917C94.0717 18.49 94.4517 19.16 95.1317 19.68C95.8317 20.2 96.7417 20.46 97.8617 20.46C98.9017 20.46 99.7217 20.23 100.322 19.77C100.922 19.31 101.222 18.73 101.222 18.03C101.222 17.31 100.902 16.78 100.262 16.44C99.6217 16.08 98.6317 15.73 97.2917 15.39C96.0717 15.07 95.0717 14.75 94.2917 14.43C93.5317 14.09 92.8717 13.6 92.3117 12.96C91.7717 12.3 91.5017 11.44 91.5017 10.38C91.5017 9.54 91.7517 8.77 92.2517 8.07C92.7517 7.37 93.4617 6.82 94.3817 6.42C95.3017 6 96.3517 5.79 97.5317 5.79C99.3517 5.79 100.822 6.25 101.942 7.17C103.062 8.09 103.662 9.35 103.742 10.95H101.012C100.952 10.09 100.602 9.4 99.9617 8.88C99.3417 8.36 98.5017 8.1 97.4417 8.1C96.4617 8.1 95.6817 8.31 95.1017 8.73C94.5217 9.15 94.2317 9.7 94.2317 10.38C94.2317 10.92 94.4017 11.37 94.7417 11.73C95.1017 12.07 95.5417 12.35 96.0617 12.57C96.6017 12.77 97.3417 13 98.2817 13.26C99.4617 13.58 100.422 13.9 101.162 14.22C101.902 14.52 102.532 14.98 103.052 15.6C103.592 16.22 103.872 17.03 103.892 18.03C103.892 18.93 103.642 19.74 103.142 20.46C102.642 21.18 101.932 21.75 101.012 22.17C100.112 22.57 99.0717 22.77 97.8917 22.77Z" fill="#3960E7"/>
</svg>
